<?xml version="1.0" encoding="UTF-8"?>
<!DOCTYPE svg PUBLIC "-//W3C//DTD SVG 1.1//EN" "http://www.w3.org/Graphics/SVG/1.1/DTD/svg11.dtd">
<!-- Creator: CorelDRAW -->
<svg xmlns="http://www.w3.org/2000/svg" xml:space="preserve" width="1.70666in" height="1.70666in" version="1.1" style="shape-rendering:geometricPrecision; text-rendering:geometricPrecision; image-rendering:optimizeQuality; fill-rule:evenodd; clip-rule:evenodd"
viewBox="0 0 1707 1707"
 xmlns:xlink="http://www.w3.org/1999/xlink">
 <defs>
  <style type="text/css">
   <![CDATA[
    .fil0 {fill:#000002}
   ]]>
  </style>
 </defs>
 <g id="Layer_x0020_1">
  <metadata id="CorelCorpID_0Corel-Layer"/>
  <path class="fil0" d="M1389 962c-175,0 -318,-142 -318,-318 0,-175 143,-317 318,-317 175,0 318,142 318,317 0,176 -143,318 -318,318zm-56 -204c3,0 7,-1 9,-4l202 -202c5,-5 5,-13 0,-18 -5,-5 -13,-5 -18,0l-193 193 -81 -81c-5,-5 -13,-5 -18,0 -5,5 -5,13 0,18l90 90c2,3 6,4 9,4z"/>
  <path class="fil0" d="M956 478c-1,0 -2,0 -3,0 -11,-2 -20,-11 -20,-22 -1,-129 -156,-218 -294,-218 -135,0 -222,82 -232,219 0,10 -8,19 -18,21 -10,2 -20,-3 -25,-13 -1,-2 -114,-235 93,-392 4,-3 92,-67 213,-67 66,0 130,20 188,59 202,137 120,395 120,397 -3,10 -12,16 -22,16z"/>
  <path class="fil0" d="M671 869c-171,0 -309,-139 -309,-309l0 -105c0,-12 10,-22 23,-22 12,0 23,10 23,22l0 105c0,145 118,263 263,263 145,0 263,-118 263,-263l0 -105c0,-13 10,-23 22,-23 13,0 23,10 23,23l0 105c0,170 -138,309 -308,309z"/>
  <path class="fil0" d="M1304 1701l-236 0 0 -356c0,-7 -6,-13 -13,-13 -7,0 -13,6 -13,13l0 356 -757 0 0 -356c0,-7 -6,-13 -13,-13 -7,0 -13,6 -13,13l0 356 -236 0c-13,0 -23,-10 -23,-23l0 -362c0,-212 173,-384 385,-384l75 0c7,0 14,3 18,9l186 246 185 -246c4,-6 11,-9 18,-9l76 0c212,0 384,172 384,384l0 362c0,13 -10,23 -23,23z"/>
  <path class="fil0" d="M460 977c-4,0 -8,-1 -11,-3 -11,-6 -15,-20 -9,-31l81 -140c6,-11 20,-14 31,-8 11,6 15,20 8,31l-80 140c-5,7 -12,11 -20,11z"/>
  <path class="fil0" d="M867 977c-8,0 -15,-4 -20,-11l-77 -135c-7,-11 -3,-24 8,-31 11,-6 25,-2 31,9l78 134c6,11 2,25 -9,31 -3,2 -7,3 -11,3z"/>
 </g>
</svg>
