<?xml version="1.0" encoding="utf-8"?><!-- Uploaded to: SVG Repo, www.svgrepo.com, Generator: SVG Repo Mixer Tools -->
<svg fill="#000000" width="800px" height="800px" viewBox="0 0 24 24" id="golf-4" data-name="Flat Color" xmlns="http://www.w3.org/2000/svg" class="icon flat-color"><path id="secondary" d="M12,22c3.93,0,7-2.2,7-5s-3.07-5-7-5a1,1,0,0,0,0,2c2.71,0,5,1.37,5,3s-2.29,3-5,3-5-1.37-5-3a2.72,2.72,0,0,1,1.51-2.12,1,1,0,0,0-1-1.72A4.57,4.57,0,0,0,5,17C5,19.8,8.08,22,12,22Z" style="fill: rgb(44, 169, 188);"></path><path id="primary" d="M5.55,6.11,11,3.38V3a1,1,0,0,1,2,0V17a1,1,0,0,1-2,0V10.62L5.55,7.89a1,1,0,0,1,0-1.78Z" style="fill: rgb(0, 0, 0);"></path></svg>