<?xml version="1.0" encoding="UTF-8" standalone="no"?> <svg width="64" height="64" viewBox="0 0 64 64" fill="none" xmlns="http://www.w3.org/2000/svg">
<path d="M2.17197 27.561C2.26363 27.6962 2.38702 27.807 2.53136 27.8835C2.67571 27.96 2.8366 28 2.99997 28H13C13.2652 28 13.5195 27.8946 13.7071 27.7071C13.8946 27.5196 14 27.2652 14 27V24H18.289C18.9923 25.002 19.7965 25.9292 20.689 26.767L22.2 28.179C22.295 28.2727 22.4078 28.3465 22.5318 28.3959C22.6558 28.4454 22.7885 28.4695 22.9219 28.4668C23.0554 28.4642 23.1869 28.4349 23.3089 28.3806C23.4308 28.3263 23.5407 28.2482 23.6319 28.1508C23.7232 28.0534 23.794 27.9387 23.8403 27.8134C23.8865 27.6882 23.9072 27.555 23.9012 27.4217C23.8951 27.2883 23.8624 27.1576 23.805 27.037C23.7476 26.9165 23.6667 26.8087 23.567 26.72L22.061 25.308C20.4668 23.8096 19.1955 22.0013 18.3252 19.994C17.455 17.9868 17.004 15.8228 17 13.635V9.929C18.4949 9.71078 19.8794 9.01588 20.9476 7.94764C22.0159 6.8794 22.7108 5.49488 22.929 4H33C33.2652 4 33.5195 3.89464 33.7071 3.70711C33.8946 3.51957 34 3.26522 34 3C34 2.73478 33.8946 2.48043 33.7071 2.29289C33.5195 2.10536 33.2652 2 33 2H22C21.7348 2 21.4804 2.10536 21.2929 2.29289C21.1053 2.48043 21 2.73478 21 3C20.9984 4.3256 20.4711 5.59644 19.5338 6.53378C18.5964 7.47112 17.3256 7.99841 16 8C15.7348 8 15.4804 8.10536 15.2929 8.29289C15.1053 8.48043 15 8.73478 15 9V12H8.99997C8.73476 12 8.4804 12.1054 8.29287 12.2929C8.10533 12.4804 7.99997 12.7348 7.99997 13V16H2.99997C2.83643 15.9999 2.67536 16.0399 2.53086 16.1165C2.38637 16.193 2.26286 16.3039 2.17117 16.4393C2.07948 16.5747 2.0224 16.7306 2.00493 16.8932C1.98746 17.0558 2.01014 17.2202 2.07097 17.372L3.92297 22L2.07097 26.628C2.0102 26.7799 1.98762 26.9444 2.00523 27.1071C2.02284 27.2698 2.0801 27.4256 2.17197 27.561ZM12 25.816C11.5817 25.6666 11.2019 25.4262 10.8878 25.1122C10.5738 24.7981 10.3334 24.4182 10.184 24H12V25.816ZM15.019 14C15.0796 16.7909 15.7879 19.5296 17.088 22H9.99997V14H15.019ZM5.92897 21.628L4.47697 18H7.99997V23C8.00365 24.0855 8.36417 25.1396 9.02597 26H4.47697L5.92897 22.372C6.02294 22.1329 6.02294 21.8671 5.92897 21.628V21.628Z" fill="black"/>
<path d="M20 11.165C19.7348 11.165 19.4804 11.2704 19.2929 11.4579C19.1054 11.6454 19 11.8998 19 12.165V13.635C19.0068 14.8604 19.1749 16.0795 19.5 17.261C19.5573 17.4731 19.6829 17.6604 19.8573 17.7939C20.0318 17.9275 20.2453 17.9999 20.465 18C20.5535 18.0002 20.6416 17.9884 20.727 17.965C20.9821 17.8948 21.1991 17.7264 21.3303 17.4966C21.4615 17.2668 21.4963 16.9944 21.427 16.739C21.148 15.7291 21.0034 14.6867 20.997 13.639V12.169C20.9975 12.0376 20.9721 11.9074 20.9223 11.7858C20.8725 11.6642 20.7992 11.5536 20.7066 11.4604C20.614 11.3671 20.5039 11.293 20.3827 11.2424C20.2614 11.1917 20.1314 11.1654 20 11.165Z" fill="black"/>
<path d="M43.537 18C43.7567 17.9999 43.9702 17.9275 44.1446 17.7939C44.3191 17.6604 44.4446 17.4731 44.502 17.261C44.8271 16.0795 44.9952 14.8604 45.002 13.635V12.165C45.002 11.8998 44.8966 11.6454 44.7091 11.4579C44.5216 11.2704 44.2672 11.165 44.002 11.165C43.7368 11.165 43.4824 11.2704 43.2949 11.4579C43.1073 11.6454 43.002 11.8998 43.002 12.165V13.635C42.9955 14.6827 42.851 15.7251 42.572 16.735C42.5027 16.9904 42.5375 17.2628 42.6687 17.4926C42.7999 17.7224 43.0168 17.8908 43.272 17.961C43.3581 17.986 43.4473 17.9991 43.537 18Z" fill="black"/>
<path d="M23 16C23 17.78 23.5278 19.5201 24.5168 21.0001C25.5057 22.4802 26.9113 23.6337 28.5558 24.3149C30.2004 24.9961 32.01 25.1743 33.7558 24.8271C35.5016 24.4798 37.1053 23.6226 38.364 22.364C39.6226 21.1053 40.4798 19.5016 40.8271 17.7558C41.1743 16.01 40.9961 14.2004 40.3149 12.5558C39.6337 10.9113 38.4802 9.50571 37.0001 8.51677C35.5201 7.52784 33.78 7 32 7C29.6139 7.00265 27.3262 7.95171 25.639 9.63896C23.9517 11.3262 23.0026 13.6139 23 16V16ZM33.032 9.085L33.16 9.477L32 10.32L30.84 9.477L30.968 9.085C31.6513 8.97166 32.3487 8.97166 33.032 9.085ZM38.9 14.839L38.565 15.083L37.41 14.241L37.852 12.875H38.259C38.5694 13.494 38.7855 14.156 38.9 14.839ZM38.314 19.011C38.2206 18.8829 38.0981 18.7788 37.9566 18.7073C37.815 18.6359 37.6585 18.5991 37.5 18.6H35.125L34.793 18.143L35.519 15.908L36.058 15.733L37.971 17.128C38.1 17.223 38.2501 17.2852 38.4085 17.309C38.5669 17.3329 38.7288 17.3178 38.88 17.265C38.7679 17.8696 38.5762 18.4567 38.31 19.011H38.314ZM25.12 17.265C25.2712 17.3178 25.4331 17.3329 25.5915 17.309C25.7499 17.2852 25.9 17.223 26.029 17.128L27.942 15.733L28.481 15.908L29.207 18.143L28.875 18.6H26.5C26.3425 18.6 26.1872 18.6373 26.0468 18.7087C25.9063 18.7801 25.7848 18.8837 25.692 19.011C25.4251 18.4568 25.2327 17.8697 25.12 17.265ZM29.074 10.665L31 12.065V12.99L29.447 14.119L28.564 13.832L27.831 11.568C27.7825 11.4183 27.6994 11.2821 27.5884 11.1705C27.4773 11.0589 27.3415 10.9752 27.192 10.926C27.6336 10.5041 28.1285 10.1417 28.664 9.848C28.6622 10.0073 28.6984 10.1647 28.7697 10.3072C28.841 10.4497 28.9454 10.573 29.074 10.667V10.665ZM26.152 12.873L26.594 14.239L25.439 15.081L25.104 14.837C25.2185 14.154 25.4346 13.492 25.745 12.873H26.152ZM27.225 20.6H28.661L29.107 21.966L28.776 22.207C28.1603 21.8859 27.5955 21.4754 27.1 20.989L27.225 20.6ZM31.16 17.5C31.1322 17.4648 31.1021 17.4314 31.07 17.4L30.547 15.79L32 14.736L33.453 15.792L32.93 17.4C32.8979 17.4314 32.8678 17.4648 32.84 17.5H31.16ZM34.893 21.966L35.339 20.6H36.775L36.901 20.989C36.4052 21.4755 35.84 21.886 35.224 22.207L34.893 21.966ZM36.169 11.566L35.436 13.83L34.553 14.117L33 12.99V12.065L34.926 10.665C35.0546 10.571 35.159 10.4477 35.2303 10.3052C35.3016 10.1627 35.3378 10.0053 35.336 9.846C35.8715 10.1397 36.3664 10.5021 36.808 10.924C36.6583 10.9734 36.5223 11.0574 36.4113 11.1694C36.3002 11.2813 36.2172 11.4179 36.169 11.568V11.566ZM31.093 22.934C31.1861 22.8059 31.2474 22.6575 31.2719 22.501C31.2965 22.3445 31.2834 22.1845 31.234 22.034L30.5 19.773L30.7 19.5H33.314L33.514 19.773L32.775 22.036C32.7256 22.1865 32.7126 22.3465 32.7371 22.503C32.7616 22.6595 32.8229 22.8079 32.916 22.936C32.3145 23.024 31.7035 23.024 31.102 22.936L31.093 22.934Z" fill="black"/>
<path d="M56 55C55.7348 55 55.4804 55.1054 55.2929 55.2929C55.1054 55.4804 55 55.7348 55 56V61C55 61.2652 55.1054 61.5196 55.2929 61.7071C55.4804 61.8946 55.7348 62 56 62C56.2652 62 56.5196 61.8946 56.7071 61.7071C56.8946 61.5196 57 61.2652 57 61V56C57 55.7348 56.8946 55.4804 56.7071 55.2929C56.5196 55.1054 56.2652 55 56 55Z" fill="black"/>
<path d="M48 42C48.5523 42 49 41.5523 49 41C49 40.4477 48.5523 40 48 40C47.4477 40 47 40.4477 47 41C47 41.5523 47.4477 42 48 42Z" fill="black"/>
<path d="M52 42C52.5523 42 53 41.5523 53 41C53 40.4477 52.5523 40 52 40C51.4477 40 51 40.4477 51 41C51 41.5523 51.4477 42 52 42Z" fill="black"/>
<path d="M52 56H48C47.7348 56 47.4804 56.1054 47.2929 56.2929C47.1054 56.4804 47 56.7348 47 57V61C47 61.2652 47.1054 61.5196 47.2929 61.7071C47.4804 61.8946 47.7348 62 48 62C48.2652 62 48.5196 61.8946 48.7071 61.7071C48.8946 61.5196 49 61.2652 49 61V58H51V61C51 61.2652 51.1054 61.5196 51.2929 61.7071C51.4804 61.8946 51.7348 62 52 62C52.2652 62 52.5196 61.8946 52.7071 61.7071C52.8946 61.5196 53 61.2652 53 61V57C53 56.7348 52.8946 56.4804 52.7071 56.2929C52.5196 56.1054 52.2652 56 52 56Z" fill="black"/>
<path d="M55 48H54.889C55.5572 47.35 56.0883 46.5726 56.4509 45.7138C56.8135 44.855 57.0002 43.9322 57 43V42C57 41.7348 56.8946 41.4804 56.7071 41.2929C56.5196 41.1054 56.2652 41 56 41C55.7348 41 55.4804 41.1054 55.2929 41.2929C55.1054 41.4804 55 41.7348 55 42V43C55 44.3261 54.4732 45.5979 53.5355 46.5355C52.5979 47.4732 51.3261 48 50 48C48.6739 48 47.4021 47.4732 46.4645 46.5355C45.5268 45.5979 45 44.3261 45 43V38.736C48.5015 37.7294 52.2254 37.8036 55.684 38.949C55.8343 38.9991 55.9944 39.0127 56.151 38.9888C56.3077 38.9648 56.4564 38.904 56.5849 38.8113C56.7134 38.7187 56.8181 38.5968 56.8903 38.4557C56.9624 38.3146 57 38.1585 57 38C57.0033 36.1435 56.269 34.3617 54.9586 33.0466C53.6482 31.7315 51.869 30.9908 50.0125 30.9875C48.156 30.9842 46.3742 31.7185 45.0591 33.0289C43.744 34.3393 43.0033 36.1185 43 37.975V43C43.0007 44.1271 43.2739 45.2373 43.7962 46.2361C44.3186 47.2348 45.0747 48.0925 46 48.736V50C46 51.0609 46.4214 52.0783 47.1716 52.8284C47.9217 53.5786 48.9391 54 50 54C51.0609 54 52.0783 53.5786 52.8284 52.8284C53.5786 52.0783 54 51.0609 54 50H55C56.3256 50.0016 57.5964 50.5289 58.5338 51.4662C59.4711 52.4036 59.9984 53.6744 60 55V61C60 61.2652 60.1054 61.5196 60.2929 61.7071C60.4804 61.8946 60.7348 62 61 62C61.2652 62 61.5196 61.8946 61.7071 61.7071C61.8946 61.5196 62 61.2652 62 61V55C61.9979 53.1441 61.2597 51.3649 59.9474 50.0526C58.6351 48.7403 56.8559 48.0021 55 48V48ZM50 33C51.0841 33.0014 52.1385 33.3545 53.0049 34.0061C53.8713 34.6577 54.5029 35.5728 54.805 36.614C51.6485 35.8393 48.3515 35.8393 45.195 36.614C45.4971 35.5728 46.1287 34.6577 46.9951 34.0061C47.8615 33.3545 48.9159 33.0014 50 33V33ZM50 52C49.4696 52 48.9609 51.7893 48.5858 51.4142C48.2107 51.0391 48 50.5304 48 50V49.7C49.3043 50.0933 50.6957 50.0933 52 49.7V50C52 50.5304 51.7893 51.0391 51.4142 51.4142C51.0391 51.7893 50.5304 52 50 52Z" fill="black"/>
<path d="M8 55C7.73478 55 7.48043 55.1054 7.29289 55.2929C7.10536 55.4804 7 55.7348 7 56V61C7 61.2652 7.10536 61.5196 7.29289 61.7071C7.48043 61.8946 7.73478 62 8 62C8.26522 62 8.51957 61.8946 8.70711 61.7071C8.89464 61.5196 9 61.2652 9 61V56C9 55.7348 8.89464 55.4804 8.70711 55.2929C8.51957 55.1054 8.26522 55 8 55V55Z" fill="black"/>
<path d="M12 43C12.5523 43 13 42.5523 13 42C13 41.4477 12.5523 41 12 41C11.4477 41 11 41.4477 11 42C11 42.5523 11.4477 43 12 43Z" fill="black"/>
<path d="M16 43C16.5523 43 17 42.5523 17 42C17 41.4477 16.5523 41 16 41C15.4477 41 15 41.4477 15 42C15 42.5523 15.4477 43 16 43Z" fill="black"/>
<path d="M16 56H12C11.7348 56 11.4804 56.1054 11.2929 56.2929C11.1054 56.4804 11 56.7348 11 57V61C11 61.2652 11.1054 61.5196 11.2929 61.7071C11.4804 61.8946 11.7348 62 12 62C12.2652 62 12.5196 61.8946 12.7071 61.7071C12.8946 61.5196 13 61.2652 13 61V58H15V61C15 61.2652 15.1054 61.5196 15.2929 61.7071C15.4804 61.8946 15.7348 62 16 62C16.2652 62 16.5196 61.8946 16.7071 61.7071C16.8946 61.5196 17 61.2652 17 61V57C17 56.7348 16.8946 56.4804 16.7071 56.2929C16.5196 56.1054 16.2652 56 16 56Z" fill="black"/>
<path d="M21 43V40.816C21.5829 40.6099 22.0879 40.2288 22.4459 39.7247C22.8039 39.2206 22.9974 38.6183 23 38C22.9992 37.6586 22.9379 37.32 22.819 37C22.9379 36.68 22.9992 36.3414 23 36C22.9958 35.469 22.8519 34.9485 22.5828 34.4907C22.3137 34.0329 21.9289 33.654 21.467 33.392C21.2373 33.2667 20.9677 33.2364 20.716 33.3076C20.4643 33.3788 20.2504 33.5458 20.1204 33.7728C19.9904 33.9997 19.9544 34.2687 20.0204 34.5218C20.0863 34.775 20.2488 34.9922 20.473 35.127C20.5928 35.1884 20.6984 35.2741 20.7832 35.3786C20.8681 35.4831 20.9302 35.6041 20.9657 35.7339C21.0011 35.8637 21.0092 35.9995 20.9892 36.1326C20.9693 36.2657 20.9219 36.3932 20.85 36.507C20.7648 36.6573 20.72 36.8272 20.72 37C20.72 37.1728 20.7648 37.3427 20.85 37.493C20.944 37.6457 20.9958 37.8207 21 38C21.0002 38.2583 20.9005 38.5066 20.7217 38.693C20.543 38.8794 20.299 38.9894 20.041 39C20.01 39 19.979 38.993 19.946 38.992C19.7487 38.9834 19.5587 38.9148 19.4013 38.7955C19.2439 38.6761 19.1266 38.5117 19.065 38.324C19.0149 38.1783 18.9319 38.0461 18.8223 37.9378C18.7128 37.8295 18.5797 37.7479 18.4334 37.6995C18.2871 37.6511 18.1317 37.6372 17.9791 37.6588C17.8266 37.6804 17.6811 37.7369 17.554 37.824C17.3918 37.9381 17.1983 37.9995 17 38C16.7436 37.9977 16.498 37.8969 16.3137 37.7187C16.1295 37.5404 16.0208 37.2981 16.01 37.042C16.0031 36.7971 15.9066 36.5632 15.7386 36.3847C15.5707 36.2063 15.3431 36.0957 15.099 36.074L14.784 36.054C14.5981 36.0366 14.4111 36.0716 14.2441 36.155C14.0771 36.2385 13.9368 36.367 13.839 36.526C13.7663 36.6387 13.6721 36.7358 13.5617 36.8119C13.4514 36.888 13.327 36.9416 13.1959 36.9695C13.0648 36.9973 12.9294 36.999 12.7976 36.9744C12.6658 36.9498 12.5402 36.8993 12.428 36.826C12.2061 36.6801 11.9354 36.6284 11.6754 36.6821C11.4154 36.7358 11.1874 36.8906 11.0415 37.1125C10.8956 37.3343 10.8439 37.6051 10.8976 37.8651C10.9513 38.1251 11.1061 38.3531 11.328 38.499C11.7921 38.7986 12.3283 38.9677 12.8803 38.9885C13.4323 39.0092 13.9797 38.8809 14.465 38.617C14.8013 39.1429 15.2934 39.5508 15.8725 39.7838C16.4517 40.0169 17.0891 40.0634 17.696 39.917C18.0402 40.3272 18.4896 40.636 18.996 40.81V43C18.9592 44.3011 18.4165 45.5365 17.4832 46.4438C16.5499 47.351 15.2996 47.8586 13.998 47.8586C12.6964 47.8586 11.4461 47.351 10.5128 46.4438C9.57953 45.5365 9.03681 44.3011 9 43V38C8.99999 37.7799 8.92735 37.5659 8.79334 37.3913C8.65933 37.2166 8.47145 37.0911 8.25882 37.0341C8.0462 36.9771 7.82071 36.9919 7.61734 37.0761C7.41397 37.1604 7.24407 37.3094 7.134 37.5C7.06059 37.3734 7.01608 37.2322 7.00365 37.0865C6.99123 36.9407 7.0112 36.794 7.06214 36.6568C7.11308 36.5197 7.19373 36.3955 7.2983 36.2932C7.40287 36.1909 7.52878 36.1129 7.667 36.065C7.81072 36.0152 7.94118 35.9333 8.04846 35.8255C8.15575 35.7176 8.23702 35.5868 8.2861 35.4428C8.33518 35.2988 8.35078 35.1456 8.3317 34.9947C8.31262 34.8438 8.25937 34.6992 8.176 34.572C8.06351 34.4022 8.00239 34.2036 8 34C8.00087 33.8666 8.02841 33.7348 8.08101 33.6122C8.13361 33.4896 8.2102 33.3788 8.30627 33.2863C8.40234 33.1937 8.51595 33.1214 8.64042 33.0734C8.76488 33.0254 8.89768 33.0029 9.031 33.007L9.139 33.022C9.334 33.0458 9.53169 33.0116 9.7074 32.9238C9.88311 32.8359 10.029 32.6983 10.127 32.528C10.1869 32.4068 10.2718 32.2997 10.3761 32.2137C10.4804 32.1277 10.6017 32.0648 10.7321 32.029C10.8625 31.9933 10.9989 31.9856 11.1325 32.0065C11.2661 32.0273 11.3937 32.0763 11.507 32.15C11.6573 32.2352 11.8272 32.28 12 32.28C12.1728 32.28 12.3427 32.2352 12.493 32.15C12.6555 32.0531 12.8418 32.0035 13.031 32.007L13.139 32.022C13.334 32.0458 13.5317 32.0116 13.7074 31.9238C13.8831 31.8359 14.029 31.6983 14.127 31.528C14.2171 31.3767 14.3449 31.2515 14.4979 31.1645C14.6509 31.0775 14.824 31.0317 15 31.0317C15.176 31.0317 15.3491 31.0775 15.5021 31.1645C15.6551 31.2515 15.7829 31.3767 15.873 31.528C15.971 31.6983 16.1169 31.8359 16.2926 31.9238C16.4683 32.0116 16.666 32.0458 16.861 32.022L17 32C17.256 32.0001 17.5015 32.1015 17.683 32.282C17.7763 32.3777 17.8879 32.4537 18.0111 32.5056C18.1343 32.5574 18.2666 32.5841 18.4003 32.5839C18.5339 32.5837 18.6662 32.5568 18.7893 32.5046C18.9124 32.4524 19.0237 32.3761 19.1168 32.2802C19.2099 32.1842 19.2828 32.0706 19.3312 31.946C19.3796 31.8214 19.4025 31.6884 19.3986 31.5548C19.3947 31.4212 19.3641 31.2897 19.3085 31.1681C19.2529 31.0465 19.1735 30.9374 19.075 30.847C18.578 30.3601 17.9256 30.0635 17.232 30.009C16.953 29.6917 16.6096 29.4376 16.2246 29.2635C15.8396 29.0894 15.422 28.9993 14.9995 28.9993C14.577 28.9993 14.1594 29.0894 13.7744 29.2635C13.3894 29.4376 13.046 29.6917 12.767 30.009C12.5048 30.0308 12.2468 30.088 12 30.179C11.4403 29.977 10.8328 29.9481 10.2564 30.0959C9.67999 30.2438 9.1614 30.5616 8.768 31.008C8.3353 31.0416 7.91503 31.1686 7.53619 31.3804C7.15736 31.5921 6.82898 31.8835 6.57372 32.2345C6.31846 32.5855 6.14239 32.9877 6.05767 33.4134C5.97295 33.839 5.98159 34.278 6.083 34.7C5.67586 35.0372 5.36557 35.4765 5.18387 35.9729C5.00217 36.4694 4.95557 37.0052 5.04884 37.5255C5.14211 38.0459 5.3719 38.5322 5.71472 38.9346C6.05754 39.337 6.50108 39.6412 7 39.816V43C6.99978 43.9322 7.18649 44.855 7.54908 45.7138C7.91166 46.5726 8.44277 47.35 9.111 48H9C7.14413 48.0021 5.36489 48.7403 4.05259 50.0526C2.7403 51.3649 2.00212 53.1441 2 55V61C2 61.2652 2.10536 61.5196 2.29289 61.7071C2.48043 61.8946 2.73478 62 3 62C3.26522 62 3.51957 61.8946 3.70711 61.7071C3.89464 61.5196 4 61.2652 4 61V55C4.00159 53.6744 4.52888 52.4036 5.46622 51.4662C6.40356 50.5289 7.6744 50.0016 9 50H10C10 51.0609 10.4214 52.0783 11.1716 52.8284C11.9217 53.5786 12.9391 54 14 54C15.0609 54 16.0783 53.5786 16.8284 52.8284C17.5786 52.0783 18 51.0609 18 50V48.736C18.9254 48.0926 19.6815 47.2349 20.2039 46.2361C20.7262 45.2374 20.9994 44.1271 21 43V43ZM16 50C16 50.5304 15.7893 51.0391 15.4142 51.4142C15.0391 51.7893 14.5304 52 14 52C13.4696 52 12.9609 51.7893 12.5858 51.4142C12.2107 51.0391 12 50.5304 12 50V49.7C13.3043 50.0933 14.6957 50.0933 16 49.7V50Z" fill="black"/>
<path d="M38 44H36.889C37.5572 43.35 38.0883 42.5726 38.4509 41.7138C38.8135 40.855 39.0002 39.9322 39 39V33C38.9982 32.3654 38.8746 31.737 38.636 31.149L43.311 26.767C44.2035 25.9292 45.0077 25.002 45.711 24H50V27C50 27.2652 50.1054 27.5196 50.2929 27.7071C50.4804 27.8946 50.7348 28 51 28H61C61.1635 28.0001 61.3246 27.9601 61.4691 27.8835C61.6136 27.807 61.7371 27.6961 61.8288 27.5607C61.9205 27.4253 61.9776 27.2694 61.995 27.1068C62.0125 26.9442 61.9898 26.7798 61.929 26.628L60.077 22L61.929 17.372C61.9898 17.2202 62.0125 17.0558 61.995 16.8932C61.9776 16.7306 61.9205 16.5747 61.8288 16.4393C61.7371 16.3039 61.6136 16.193 61.4691 16.1165C61.3246 16.0399 61.1635 15.9999 61 16H56V13C56 12.7348 55.8946 12.4804 55.7071 12.2929C55.5196 12.1054 55.2652 12 55 12H52C51.7348 12 51.4804 12.1054 51.2929 12.2929C51.1054 12.4804 51 12.7348 51 13C51 13.2652 51.1054 13.5196 51.2929 13.7071C51.4804 13.8946 51.7348 14 52 14H54V22H46.912C48.2746 19.4217 48.9912 16.5512 49 13.635V9C49 8.73478 48.8946 8.48043 48.7071 8.29289C48.5196 8.10536 48.2652 8 48 8C46.6744 7.99841 45.4036 7.47112 44.4662 6.53378C43.5289 5.59644 43.0016 4.3256 43 3C43 2.73478 42.8946 2.48043 42.7071 2.29289C42.5196 2.10536 42.2652 2 42 2H37C36.7348 2 36.4804 2.10536 36.2929 2.29289C36.1054 2.48043 36 2.73478 36 3C36 3.26522 36.1054 3.51957 36.2929 3.70711C36.4804 3.89464 36.7348 4 37 4H41.071C41.2892 5.49488 41.9841 6.8794 43.0524 7.94764C44.1206 9.01588 45.5051 9.71078 47 9.929V13.635C46.9965 15.8225 46.5462 17.9863 45.6766 19.9936C44.807 22.0008 43.5365 23.8093 41.943 25.308L37.52 29.455C36.5857 28.5229 35.3197 27.9996 34 28H26C25.7348 28 25.4804 28.1054 25.2929 28.2929C25.1054 28.4804 25 28.7348 25 29V33C25 33.2652 25.1054 33.5196 25.2929 33.7071C25.4804 33.8946 25.7348 34 26 34H37V39C37 40.3261 36.4732 41.5979 35.5355 42.5355C34.5979 43.4732 33.3261 44 32 44C30.6739 44 29.4021 43.4732 28.4645 42.5355C27.5268 41.5979 27 40.3261 27 39V37C27 36.7348 26.8946 36.4804 26.7071 36.2929C26.5196 36.1054 26.2652 36 26 36C25.7348 36 25.4804 36.1054 25.2929 36.2929C25.1054 36.4804 25 36.7348 25 37V39C24.9998 39.9322 25.1865 40.855 25.5491 41.7138C25.9117 42.5726 26.4428 43.35 27.111 44H26C24.1441 44.0021 22.3649 44.7403 21.0526 46.0526C19.7403 47.3649 19.0021 49.1441 19 51V61C19 61.2652 19.1054 61.5196 19.2929 61.7071C19.4804 61.8946 19.7348 62 20 62C20.2652 62 20.5196 61.8946 20.7071 61.7071C20.8946 61.5196 21 61.2652 21 61V57H24V61C24 61.2652 24.1054 61.5196 24.2929 61.7071C24.4804 61.8946 24.7348 62 25 62C25.2652 62 25.5196 61.8946 25.7071 61.7071C25.8946 61.5196 26 61.2652 26 61V52C26 51.7348 25.8946 51.4804 25.7071 51.2929C25.5196 51.1054 25.2652 51 25 51C24.7348 51 24.4804 51.1054 24.2929 51.2929C24.1054 51.4804 24 51.7348 24 52V55H21V51C21.0016 49.6744 21.5289 48.4036 22.4662 47.4662C23.4036 46.5289 24.6744 46.0016 26 46H28C28 47.0609 28.4214 48.0783 29.1716 48.8284C29.9217 49.5786 30.9391 50 32 50C33.0609 50 34.0783 49.5786 34.8284 48.8284C35.5786 48.0783 36 47.0609 36 46H38C39.3256 46.0016 40.5964 46.5289 41.5338 47.4662C42.4711 48.4036 42.9984 49.6744 43 51V55H40V52C40 51.7348 39.8946 51.4804 39.7071 51.2929C39.5196 51.1054 39.2652 51 39 51C38.7348 51 38.4804 51.1054 38.2929 51.2929C38.1054 51.4804 38 51.7348 38 52V61C38 61.2652 38.1054 61.5196 38.2929 61.7071C38.4804 61.8946 38.7348 62 39 62C39.2652 62 39.5196 61.8946 39.7071 61.7071C39.8946 61.5196 40 61.2652 40 61V57H43V61C43 61.2652 43.1054 61.5196 43.2929 61.7071C43.4804 61.8946 43.7348 62 44 62C44.2652 62 44.5196 61.8946 44.7071 61.7071C44.8946 61.5196 45 61.2652 45 61V51C44.9979 49.1441 44.2597 47.3649 42.9474 46.0526C41.6351 44.7403 39.8559 44.0021 38 44ZM52 25.816V24H53.816C53.6666 24.4182 53.4262 24.7981 53.1122 25.1122C52.7981 25.4262 52.4182 25.6666 52 25.816ZM59.523 18L58.071 21.628C57.977 21.8671 57.977 22.1329 58.071 22.372L59.523 26H54.974C55.6358 25.1396 55.9963 24.0855 56 23V18H59.523ZM27 32V30H34C34.6203 30.0008 35.2251 30.1934 35.7316 30.5514C36.2381 30.9095 36.6214 31.4155 36.829 32H27ZM32 48C31.4696 48 30.9609 47.7893 30.5858 47.4142C30.2107 47.0391 30 46.5304 30 46V45.7C31.3043 46.0933 32.6957 46.0933 34 45.7V46C34 46.5304 33.7893 47.0391 33.4142 47.4142C33.0391 47.7893 32.5304 48 32 48Z" fill="black"/>
<path d="M30 38C30.5523 38 31 37.5523 31 37C31 36.4477 30.5523 36 30 36C29.4477 36 29 36.4477 29 37C29 37.5523 29.4477 38 30 38Z" fill="black"/>
<path d="M34 38C34.5523 38 35 37.5523 35 37C35 36.4477 34.5523 36 34 36C33.4477 36 33 36.4477 33 37C33 37.5523 33.4477 38 34 38Z" fill="black"/>
<path d="M34 54H30C29.7348 54 29.4804 54.1054 29.2929 54.2929C29.1054 54.4804 29 54.7348 29 55V61C29 61.2652 29.1054 61.5196 29.2929 61.7071C29.4804 61.8946 29.7348 62 30 62H34C34.2652 62 34.5196 61.8946 34.7071 61.7071C34.8946 61.5196 35 61.2652 35 61V55C35 54.7348 34.8946 54.4804 34.7071 54.2929C34.5196 54.1054 34.2652 54 34 54ZM33 60H31V56H33V60Z" fill="black"/>
</svg>
